<svg width="1512" height="1718" viewBox="0 0 1512 1718" fill="none" xmlns="http://www.w3.org/2000/svg">
<path d="M2174.9 1515.63C2089.44 1345.16 1959.22 1215.75 1820.96 1125.15C1657.94 1018.35 1483.26 966.905 1312.44 922.609C1134.79 876.459 957.068 832.858 780.572 764.227C614.775 699.751 450.359 614.012 297.632 493.177C159.511 383.873 30.9268 246.214 -70.1768 81.1905C-82.2443 61.5291 -93.9097 41.5315 -105.173 21.1977C-113.093 6.84993 -96.611 -3.36036 -88.7231 10.9221C6.70809 183.229 132.583 327.977 270.095 443.271C419.924 568.934 582.517 658.532 747.114 725.84C924.582 798.412 1103.77 844.365 1282.61 890.156C1454.12 934.318 1628.84 982.09 1794.15 1082.36C1932.15 1166.11 2064.14 1285.57 2158.66 1445.36C2170.24 1464.9 2181.08 1484.9 2191.34 1505.4C2198.74 1520.16 2182.29 1530.39 2174.9 1515.63Z" fill="url(#paint0_linear_845_1144)"/>
<path d="M-89.4322 21.0139C6.93198 192.186 132.858 336.604 270.391 451.503C419.475 576.313 581.105 665.11 744.906 731.089C922.522 802.717 1101.79 847.09 1280.92 892.104C1453.08 935.352 1628.19 983.004 1794.71 1080.9C1934.81 1163.3 2071.04 1281.69 2169.53 1441C2181.21 1459.91 2192.34 1479.3 2202.92 1499.18C2210.69 1513.71 2194.2 1523.92 2186.52 1509.43C2095.98 1339.6 1961.67 1211.37 1820.85 1122.67C1656.43 1019.12 1482 967.991 1310.5 924.289C1132.79 879.024 954.936 836.826 778.276 769.233C613.391 706.141 449.939 621.203 297.974 501.379C159.911 392.507 30.9481 255.128 -70.6144 91.1554C-82.796 71.5085 -94.591 51.535 -105.999 31.2351C-114.012 16.9454 -97.5377 6.78222 -89.5495 20.9595L-89.4322 21.0139Z" fill="url(#paint1_linear_845_1144)"/>
<path d="M-90.1123 31.17C7.35241 201.739 133.664 345.577 271.436 460.284C420.875 584.703 582.76 673.213 746.927 738.198C924.407 808.297 1103.38 850.86 1282.07 894.914C1454.47 937.415 1629.61 984.925 1796.73 1080.57C1938.56 1161.55 2077.17 1277.86 2179.8 1435.34C2192.02 1454.06 2203.68 1473.38 2214.81 1493.12C2222.87 1507.38 2206.4 1517.54 2198.37 1503.35C2103.36 1335.28 1966.2 1209.48 1823.82 1122.18C1658.53 1020.96 1483.95 969.959 1312.1 926.903C1134.75 882.515 957.176 842.014 780.73 775.987C615.513 714.208 451.832 629.922 299.535 510.349C161.255 401.781 32.1327 264.884 -70.4839 101.485C-82.8266 81.7972 -94.8216 61.7646 -106.469 41.3874C-114.582 27.2029 -98.1078 17.0398 -90.0657 31.1409L-90.1123 31.17Z" fill="url(#paint2_linear_845_1144)"/>
<path d="M-90.7428 41.2981C8.07514 211.787 135.633 355.951 274.41 470.668C425.267 595.391 588.611 683.414 754.144 746.908C930.532 814.629 1108.25 855.043 1285.69 898.009C1458 939.759 1632.83 987.332 1800.22 1081.08C1943.37 1160.84 2083.66 1274.75 2190.12 1429.96C2202.79 1448.44 2214.87 1467.5 2226.47 1486.94C2234.86 1500.95 2218.47 1511.1 2210.06 1497.19C2110.94 1331.57 1971.37 1208.33 1827.78 1122.55C1661.99 1023.47 1487.6 972.564 1315.69 930.139C1139.58 886.726 963.285 848.187 787.97 784.556C621.526 724.18 456.519 640.595 302.898 520.913C163.601 412.43 33.5579 275.258 -70.5364 111.932C-83.1337 92.1765 -95.3296 72.0002 -107.115 51.6098C-115.35 37.6719 -98.8464 27.3202 -90.7114 41.3633L-90.7428 41.2981Z" fill="url(#paint3_linear_845_1144)"/>
<path d="M-91.3772 51.4246C8.16729 220.227 134.971 363.333 273.011 477.405C423.5 601.805 586.234 689.445 751.542 751.974C928.438 818.868 1106.63 857.882 1284.51 900.145C1456.51 940.942 1630.6 987.916 1798.1 1078.27C1943.24 1156.59 2085.92 1267.8 2197.26 1420.27C2210.9 1438.95 2223.99 1458.2 2236.5 1478.04C2245.09 1491.59 2232.15 1507.53 2223.46 1493.79C2119.45 1329.69 1978.28 1208.35 1832.42 1123.18C1666.02 1026.1 1491.63 975.191 1319.51 933.277C1142.17 890.206 964.689 853.088 788.034 790.251C621.646 731.116 457.089 648.397 303.558 529.212C164.208 421.058 34.2303 284.271 -70.7283 121.91C-83.4576 102.194 -95.7855 82.0579 -107.827 61.7002C-116.102 47.7442 -99.6126 37.4868 -91.3772 51.4246V51.4246Z" fill="url(#paint4_linear_845_1144)"/>
<path d="M-92.0088 61.5517C9.12325 230.383 137.011 373.789 276.133 487.907C426.646 611.357 589.092 697.902 754.178 758.913C930.704 824.168 1108.41 861.489 1285.77 902.802C1459.01 943.163 1634.4 990.387 1803.47 1079.85C1949.3 1156.97 2092.89 1265.83 2207.32 1414.93C2221.43 1433.31 2235.02 1452.28 2248.08 1471.83C2257 1485.12 2244.03 1501.01 2235 1487.56C2127.35 1326.88 1984.88 1208.48 1838.15 1124.57C1670.05 1028.43 1494.32 977.249 1320.79 935.793C1144.67 893.743 968.511 858.351 792.82 797.631C625.321 739.7 459.681 657.743 305.019 538.287C165.344 430.336 35.0728 293.817 -70.8765 132.16C-83.8866 112.365 -96.417 92.1849 -108.693 71.7186C-117.045 57.7264 -100.696 47.556 -92.243 61.443L-92.0088 61.5517Z" fill="url(#paint5_linear_845_1144)"/>
<path d="M-92.6865 71.7087C9.56439 239.288 137.535 382.429 276.741 496.283C428.528 620.425 592.247 706.6 758.796 766.569C935.901 830.272 1114.08 865.638 1291.87 906.643C1464.13 946.091 1638.49 993.399 1806.75 1080.31C1953.96 1156.35 2099.3 1263.23 2217.68 1409.77C2232.26 1427.86 2246.34 1446.5 2259.94 1465.69C2269.19 1478.79 2256.21 1494.67 2246.89 1481.49C2134.24 1322.75 1988.93 1206.42 1840.2 1124.01C1673.04 1031.28 1499.08 980.315 1326.96 939.718C1149.71 897.951 972.351 864.028 795.518 804.447C627.359 747.778 461.155 666.471 305.956 546.967C166.183 439.376 35.9062 303.157 -70.8683 142.483C-84.0104 122.728 -96.712 102.57 -109.12 82.1437C-117.55 68.1152 -101.145 58.1226 -92.7163 71.8973L-92.6865 71.7087Z" fill="url(#paint6_linear_845_1144)"/>
<path d="M-95.0218 79.0737C8.18639 245.63 135.235 388.242 274.294 502.231C426.795 627.159 591.237 713.265 758.66 772.476C935.5 834.942 1113.25 869 1290.69 908.826C1463.05 947.567 1637.21 994.371 1806.12 1078.96C1956.91 1154.38 2105.83 1260.3 2229.12 1406.07C2243.73 1423.37 2257.92 1441.2 2271.67 1459.55C2281.22 1472.33 2268.19 1488.29 2258.59 1475.34C2141.86 1319.6 1994.76 1205.83 1844.74 1124.49C1676.35 1033.12 1501.53 982.265 1328.46 942.135C1152.45 901.297 976.301 868.997 800.572 811.446C632.761 756.558 466.967 676.907 311.686 558.984C170.686 451.734 39.2638 315.339 -69.2599 154.865C-82.5569 135.206 -95.4933 115.209 -108.069 94.8733C-116.513 81.193 -103.411 65.3171 -95.0218 79.0737Z" fill="url(#paint7_linear_845_1144)"/>
<path d="M-95.669 89.2947C9.05407 255.543 136.906 398.376 276.852 512.32C428.759 635.962 592.312 720.795 758.977 778.44C936.166 839.753 1114.22 872.433 1291.94 911.53C1464.87 949.622 1639.48 996.436 1809.23 1079.44C1961.62 1153.99 2112.06 1257.98 2239.26 1400.96C2254.33 1418.07 2269.03 1435.58 2283.35 1453.49C2293.2 1465.95 2280.16 1481.75 2270.31 1469.29C2148.68 1315.94 1998.79 1204.21 1846.36 1123.78C1677.6 1034.76 1502.98 984.251 1329.92 944.883C1153.47 904.653 976.989 873.666 800.826 817.28C633.32 763.646 467.667 685.224 312.303 567.566C171.172 460.61 39.7133 324.45 -69.6356 164.959C-83.0887 145.228 -96.1986 125.268 -108.965 105.08C-117.509 91.505 -104.564 75.5564 -95.9181 89.2802L-95.669 89.2947Z" fill="url(#paint8_linear_845_1144)"/>
<path d="M-96.2558 99.1395C10.3353 264.484 137.474 407.781 278.36 521.366C432.087 645.953 597.581 730.169 766.158 786.577C943.129 845.816 1120.64 876.625 1298.11 915.154C1470.69 952.575 1644.85 999.585 1814.48 1080.92C1967.79 1154.47 2119.12 1256.24 2249.41 1395.6C2264.99 1412.28 2280.21 1429.46 2295.08 1447.14C2305.2 1459.22 2292.11 1475.01 2281.99 1462.93C2156.76 1313.57 2005.71 1204.44 1852.26 1125.15C1683.3 1037.91 1508.95 987.323 1336.03 948.328C1160.12 908.701 984.191 879.283 808.455 824.967C638.99 772.599 471.593 695.139 314.653 576.851C172.243 470.236 42.0718 334.091 -69.2931 175.285C-82.9284 155.47 -96.3011 135.405 -109.411 115.092C-118.087 101.556 -105.142 85.608 -96.3637 99.2918L-96.2558 99.1395Z" fill="url(#paint9_linear_845_1144)"/>
<path d="M-96.9257 109.502C11.1424 274.592 139.316 417.683 280.971 531.379C434.849 655.278 600.294 738.206 768.814 793.12C944.65 850.518 1121.01 879.881 1297.11 917.268C1470.25 954.04 1644.78 1000.82 1815.2 1080.34C1971.31 1153.17 2126.39 1253.75 2260.91 1391.73C2276.47 1407.65 2291.73 1424.07 2306.69 1441C2317.03 1452.73 2303.95 1468.46 2293.64 1456.8C2163.66 1309.94 2009.64 1202.62 1853.75 1124.43C1683.75 1039.08 1508.76 988.755 1335.12 950.385C1160.44 911.732 985.764 883.655 811.201 831.199C641.919 780.332 474.627 704.337 317.616 587.028C174.418 480.279 43.2948 344.169 -69.2956 185.401C-83.1527 165.753 -96.7533 145.717 -110.097 125.295C-118.835 111.883 -105.89 95.9346 -97.0187 109.56L-96.9257 109.502Z" fill="url(#paint10_linear_845_1144)"/>
<path d="M-97.5981 119.611C12.2678 284.94 141.889 428.227 284.779 542.302C439.205 665.646 605.02 747.026 773.887 800.533C949.468 856.093 1125.24 883.868 1300.91 920.548C1474.51 956.775 1649.44 1003.69 1820.51 1081.99C1977.64 1153.93 2133.61 1252.55 2271.08 1386.49C2287.13 1402.13 2302.85 1418.32 2318.38 1434.89C2328.95 1446.22 2315.79 1461.91 2305.29 1450.67C2171.02 1307.08 2014.94 1201.94 1857.19 1124.71C1687.07 1041.38 1512.35 991.23 1338.92 953.411C1163.95 915.233 989.037 888.665 814.118 837.409C644.596 787.796 477.137 713.393 319.707 596.345C176.169 489.633 44.4781 353.933 -69.0795 195.72C-83.2749 175.915 -97.1302 155.812 -110.645 135.411C-119.515 122.039 -106.531 106.109 -97.5981 119.611Z" fill="url(#paint11_linear_845_1144)"/>
<path d="M-98.2289 129.739C12.6972 294.058 142.735 436.632 285.683 550.663C440.027 673.463 605.593 753.766 774.24 806.008C950.008 860.389 1126.27 886.924 1302.24 922.987C1474.77 958.312 1648.52 1004.73 1818.86 1080.27C1978 1150.86 2136.1 1247.17 2277.68 1377.56C2294.76 1393.27 2311.57 1409.5 2328.12 1426.25C2338.97 1437.15 2330.22 1457.58 2319.38 1446.58C2180.66 1306.55 2023.13 1202.91 1863.03 1126.15C1692.77 1044.58 1518.31 994.349 1345.06 956.968C1169.82 919.219 994.689 894.018 819.446 844.281C649.328 796.061 481.164 723.203 322.921 606.536C178.458 499.666 45.6808 363.953 -69.2289 205.717C-83.5743 185.977 -97.6258 165.968 -111.384 145.691C-120.353 132.424 -107.409 116.475 -98.3368 129.891L-98.2289 129.739Z" fill="url(#paint12_linear_845_1144)"/>
<path d="M-98.8617 139.866C13.048 303.342 143.484 445.373 286.511 559.495C442.254 682.994 609.37 762.499 779.431 813.475C954.865 865.981 1130.47 891.099 1305.92 926.212C1478.84 960.91 1652.81 1007.53 1823.69 1081.8C1984.16 1151.6 2143.4 1246.01 2288.14 1372.85C2305.59 1388.13 2322.82 1403.93 2339.83 1420.25C2350.75 1430.73 2342.12 1451.16 2331.06 1440.56C2189.42 1304.9 2031.27 1203.85 1870.69 1128.34C1699.08 1047.61 1523.66 997.131 1349.16 959.98C1173.52 922.603 998.022 898.65 822.354 850.284C652.479 803.442 484.508 732.291 326.24 616.575C180.893 509.549 47.0693 373.842 -69.1553 215.615C-83.6766 195.928 -97.9104 175.835 -111.857 155.336C-120.958 142.109 -107.982 126.226 -98.8097 139.536L-98.8617 139.866Z" fill="url(#paint13_linear_845_1144)"/>
<path d="M-99.5009 150.04C14.5182 312.861 146.068 456.954 290.547 570.574C446.665 693.286 614.143 771.29 784.378 820.372C959.479 871.005 1134.57 894.824 1309.63 929.503C1482.99 963.845 1657.18 1010.41 1828.78 1083.55C1991.11 1152.69 2152.11 1245.75 2300.19 1369.49C2317.46 1383.98 2334.56 1398.89 2351.5 1414.24C2362.71 1424.49 2354.02 1444.79 2342.77 1434.57C2197.09 1302.53 2036.87 1203.41 1874.25 1128.88C1702.61 1050.16 1527.47 999.809 1353.2 963.02C1178.06 926.227 1003.04 903.506 827.804 856.91C657.154 811.529 488.112 741.854 328.904 626.258C183.106 520.474 48.4602 382.735 -68.8669 226.018C-83.7005 206.186 -98.2747 186.036 -112.589 165.568C-121.752 152.464 -108.775 136.581 -99.5103 149.834L-99.5009 150.04Z" fill="url(#paint14_linear_845_1144)"/>
<path d="M-100.173 160.15C15.1675 321.763 146.803 465.846 291.608 579.262C449.053 702.59 618.094 779.447 789.65 827.322C964.333 876.091 1138.72 898.522 1313.49 932.66C1485.67 966.253 1658.74 1012.46 1829.21 1083.15C1994.37 1151.68 2158.06 1243.4 2310.35 1364.34C2328.17 1378.51 2345.82 1393.11 2363.31 1408.13C2374.72 1417.93 2365.98 1438.26 2354.54 1428.45C2204.96 1300.16 2042.39 1202.69 1877.99 1129.35C1706.22 1052.54 1531.21 1002.4 1357.05 966.272C1181.37 929.639 1006.18 908.303 830.612 863.019C660.354 819.136 491.457 751.198 332.219 636.852C185.466 531.283 49.9668 392.844 -68.9069 236.37C-83.932 216.601 -98.6879 196.452 -113.243 176.091C-122.545 163.075 -109.529 147.21 -100.195 160.292L-100.173 160.15Z" fill="url(#paint15_linear_845_1144)"/>
<path d="M-100.805 170.277C16.2513 331.371 148.818 476.189 294.712 589.605C452.26 712.019 621.163 787.092 792.529 833.513C967.419 880.962 1142.34 902.171 1317.24 935.762C1490.47 968.988 1664.62 1015.54 1836.3 1085.52C2002.06 1153.17 2166.32 1242.78 2320.75 1359.45C2339.02 1372.99 2357.04 1387.36 2374.94 1401.89C2386.53 1411.27 2377.79 1431.64 2366.21 1422.22C2213.23 1298.18 2049.21 1203.02 1882.94 1130.38C1710.48 1054.97 1535.38 1004.9 1360.87 969.108C1185.02 933.052 1009.46 912.757 833.511 868.815C662.889 826.179 493.357 759.616 333.677 645.419C185.707 539.589 49.7118 400.313 -70.5226 243.967C-85.2 224.916 -99.6152 205.531 -113.837 185.983C-123.24 173.071 -110.239 157.3 -100.79 170.183L-100.805 170.277Z" fill="url(#paint16_linear_845_1144)"/>
<path d="M-101.445 180.451C17.0571 340.344 149.624 485.162 295.843 598.375C453.981 720.76 623.56 794.477 795.336 839.621C970.831 885.631 1145.84 905.766 1321.06 938.853C1495.43 971.843 1670.51 1018.62 1843.49 1088C2009.94 1154.7 2174.73 1242.33 2331.25 1354.76C2349.85 1368.11 2368.31 1381.82 2386.65 1395.89C2398.39 1404.88 2389.62 1425.19 2377.88 1416.2C2222.42 1297.04 2057.52 1204.24 1890.49 1132.67C1716.91 1058.31 1540.61 1007.88 1364.97 972.373C1189.32 936.868 1012.98 917.273 836.636 874.767C665.604 833.408 495.343 768.277 335.12 654.334C186.835 548.914 50.8297 409.431 -70.4864 254.101C-85.3609 235.059 -100.014 215.767 -114.446 196.222C-123.988 183.398 -110.926 167.504 -101.406 180.469L-101.445 180.451Z" fill="url(#paint17_linear_845_1144)"/>
<path d="M-102.077 190.578C18.6969 350.413 152.455 496.441 300.418 609.755C458.955 731.211 628.936 802.636 800.693 846.305C975.701 890.621 1150.17 909.394 1324.93 941.962C1498.88 974.357 1673.57 1021 1846.2 1088.6C2014.7 1154.58 2181.49 1240.66 2341.34 1349.53C2360.48 1362.56 2379.48 1375.98 2398.4 1389.66C2410.28 1398.26 2401.47 1418.55 2389.67 1409.99C2230.3 1294.57 2063.22 1203.7 1894 1133.03C1719.63 1060.23 1542.81 1009.86 1366.59 974.798C1191.6 939.996 1017.12 921.826 842.006 881.103C671.227 841.328 500.858 778.474 340.389 665.833C190.324 560.802 53.189 419.985 -70.1199 264.54C-85.3271 245.394 -100.319 225.944 -115.164 206.36C-124.76 193.612 -111.722 177.606 -102.077 190.578V190.578Z" fill="url(#paint18_linear_845_1144)"/>
<path d="M-102.631 200.742C20.1541 360.043 154.736 506.959 303.952 620.297C463.193 741.271 633.993 810.952 806.182 852.949C981.52 895.699 1156.22 913.264 1331.32 945.535C1504.64 977.433 1678.78 1023.82 1851 1090.07C2021.28 1154.82 2189.04 1240.11 2351.82 1344.68C2371.33 1357.34 2390.76 1370.28 2410.1 1383.5C2422.09 1391.69 2413.24 1411.97 2401.32 1403.81C2239.08 1292.83 2070.06 1203.89 1899.18 1134.17C1724.99 1063.12 1548.57 1012.94 1372.71 978.244C1196.86 943.551 1022.75 926.512 847.359 887.279C676.381 849.031 505.31 787.976 344.342 676.368C193.01 571.407 55.0833 429.767 -69.9507 274.634C-85.3704 255.508 -100.613 236.144 -115.679 216.542C-125.382 203.946 -112.374 188.129 -102.631 200.742V200.742Z" fill="url(#paint19_linear_845_1144)"/>
<path d="M-103.382 210.815C20.8325 368.755 155.558 516.092 305.192 629.169C465.007 749.954 636.482 818.279 809.072 858.793C985.585 900.469 1161.39 916.877 1337.64 949.024C1511.46 980.124 1685.53 1028.09 1858.28 1092.49C2029.89 1156.71 2199.28 1239.92 2364.37 1341.09C2383.59 1352.91 2402.73 1364.99 2421.79 1377.34C2433.89 1385.13 2425.04 1405.4 2413.06 1397.67C2248.31 1291.96 2078.83 1204.46 1906.81 1136.29C1732.04 1067.26 1555.66 1015.57 1379.37 981.737C1202.95 947.185 1027.07 930.995 850.692 892.974C679.35 855.973 507.614 796.481 345.917 685.244C194.091 580.761 56.1447 438.708 -69.9711 284.591C-85.6449 265.482 -101.131 246.157 -116.429 226.615C-126.234 214.124 -113.225 198.307 -103.382 210.815Z" fill="url(#paint20_linear_845_1144)"/>
<path d="M-104.02 220.99C21.6703 377.541 156.507 525.233 306.63 638.132C466.942 758.692 639.166 825.189 812.012 864.608C987.197 904.606 1161.61 919.966 1336.55 951.15C1511.46 981.967 1686.63 1029.39 1860.59 1093C2032.93 1156.24 2203.39 1236.64 2370.27 1333.41C2390.56 1345.22 2410.8 1357.27 2430.98 1369.56C2443.09 1376.96 2439.5 1400.58 2427.26 1393.13C2260.53 1291.83 2089.87 1206.98 1917.04 1139.42C1741.05 1070.88 1563.53 1019.32 1386.11 985.219C1209.25 950.816 1033.08 935.656 856.115 898.98C684.613 863.524 512.199 805.943 349.926 695.703C196.695 591.631 57.9306 448.389 -69.8712 294.602C-85.742 275.503 -101.484 256.211 -117.099 236.725C-127.011 224.387 -113.925 208.605 -104.02 220.99V220.99Z" fill="url(#paint21_linear_845_1144)"/>
<path d="M-104.653 231.117C23.0019 387.163 158.728 536.128 310.28 648.729C471.24 768.629 644.336 833.051 817.42 870.962C992.936 909.393 1167.56 923.687 1342.84 954.621C1517.22 985.36 1691.89 1032.11 1865.43 1094.49C2039.3 1157.15 2211.57 1235.39 2380.84 1328.55C2401.56 1339.95 2422.21 1351.55 2442.81 1363.37C2455.03 1370.35 2451.42 1394.02 2439.09 1386.94C2269.6 1289.68 2096.88 1207.29 1922.33 1140.41C1746.54 1073.37 1569.36 1022.6 1392.29 988.541C1215.15 954.313 1038.84 940.048 861.636 904.881C690.005 870.781 517.007 815.307 354.143 706.158C199.46 602.525 59.9632 458.084 -69.6417 304.573C-85.7821 285.501 -101.761 266.2 -117.654 246.888C-127.666 234.655 -114.58 218.874 -104.568 231.107L-104.653 231.117Z" fill="url(#paint22_linear_845_1144)"/>
<path d="M-105.325 241.226C24.6349 396.47 161.048 546.917 314.04 659.427C474.849 777.891 647.866 840.152 820.262 876.58C996.142 913.764 1171.1 927.047 1346.72 957.635C1521.35 988.244 1696.27 1034.44 1870.15 1095.87C2045.64 1158.07 2219.76 1234.22 2391.43 1323.85C2412.49 1334.83 2433.53 1346 2454.56 1357.34C2466.92 1363.98 2463.29 1387.59 2450.85 1380.91C2278.69 1287.71 2103.92 1207.79 1927.62 1141.65C1751.45 1075.75 1573.99 1025.55 1396.65 991.425C1219.05 957.487 1042.31 944.085 864.819 910.202C694 877.591 521.211 823.985 358.602 716.675C202.374 613.539 62.1129 467.832 -69.2877 314.551C-85.6357 295.467 -101.894 276.255 -118.062 256.917C-128.182 244.837 -115.096 229.055 -105.015 241.117L-105.325 241.226Z" fill="url(#paint23_linear_845_1144)"/>
<path d="M-105.971 251.448C26.6495 406.56 164.424 559.004 319.602 671.466C481.251 788.853 655.697 848.692 828.571 883.419C1003.91 918.685 1178.23 930.963 1353.36 961.222C1528.22 991.85 1703.36 1037.61 1877.54 1098.18C2053.69 1159.58 2228.72 1233.23 2401.78 1318.79C2423.26 1329.36 2444.73 1340.08 2466.17 1350.94C2478.63 1357.22 2474.95 1380.81 2462.46 1374.51C2288.51 1285.83 2112.51 1208.75 1935.27 1143.63C1757.85 1078.56 1579.25 1028.75 1400.77 994.549C1225.34 961.418 1050.94 948.596 875.548 917.101C703.511 886.101 529.193 835.022 364.794 728.703C206.291 626.181 64.8564 478.615 -69.0593 325.077C-85.8076 305.875 -102.479 286.539 -119.074 267.071C-129.302 255.142 -116.215 239.36 -106.026 251.271L-105.971 251.448Z" fill="url(#paint24_linear_845_1144)"/>
<path d="M-106.596 261.527C28.2898 415.819 166.963 569.742 323.696 682.167C486.038 798.611 661.113 856.06 834.085 889.366C1009.67 923.123 1184.18 934.43 1359.62 964.533C1533.97 995.109 1708.59 1040.26 1882.33 1099.69C2060.13 1159.77 2236.88 1232.88 2412.23 1314.13C2434.15 1324.29 2456.01 1334.57 2477.84 1344.97C2490.41 1350.8 2486.73 1374.39 2474.12 1368.54C2297.57 1284.6 2119.64 1208.33 1940.51 1144.7C1763.29 1081.08 1585.01 1032.03 1406.86 997.881C1231.2 964.896 1056.62 952.951 881.223 922.819C708.575 893.306 532.807 843.983 367.579 738.139C208.215 636.027 66.5894 487.816 -68.6107 335.25C-85.6342 316.021 -102.604 296.716 -119.519 277.334C-129.816 265.576 -116.698 249.86 -106.44 261.6L-106.596 261.527Z" fill="url(#paint25_linear_845_1144)"/>
<path d="M-107.23 271.654C30.763 426.173 171.057 582.569 330.614 694.887C493.644 809.626 669.577 864.287 842.489 895.845C1016.59 927.598 1189.59 938.104 1363.59 967.537C1540.08 997.414 1717.06 1044.62 1893.11 1103.03C2071.02 1162.2 2248.36 1233.14 2424.51 1310.11C2446.23 1319.58 2467.91 1329.15 2489.57 1338.83C2502.18 1344.42 2498.47 1367.99 2485.86 1362.4C2309.03 1283.65 2131.35 1210.32 1952.61 1148.19C1773.87 1086.05 1593.41 1034.9 1413.25 1001.2C1237.07 968.327 1062.08 957.104 886.072 928.205C714.554 900.026 539.413 853.371 374.594 750.246C212.23 648.563 69.0535 497.963 -68.9389 344.507C-86.1011 325.45 -103.217 306.363 -120.286 287.248C-130.683 275.595 -117.565 259.879 -107.2 271.466L-107.23 271.654Z" fill="url(#paint26_linear_845_1144)"/>
<defs>
<linearGradient id="paint0_linear_845_1144" x1="2149.39" y1="1376.48" x2="-163.739" y2="1059.27" gradientUnits="userSpaceOnUse">
<stop offset="0.736111" stop-color="#77D1D7"/>
<stop offset="1" stop-color="#3316E3"/>
</linearGradient>
<linearGradient id="paint1_linear_845_1144" x1="2159.99" y1="1375.93" x2="-161.879" y2="1060.11" gradientUnits="userSpaceOnUse">
<stop offset="0.736111" stop-color="#77D1D7"/>
<stop offset="1" stop-color="#3316E3"/>
</linearGradient>
<linearGradient id="paint2_linear_845_1144" x1="2170.87" y1="1375.49" x2="-159.612" y2="1061.36" gradientUnits="userSpaceOnUse">
<stop offset="0.736111" stop-color="#77D1D7"/>
<stop offset="1" stop-color="#3316E3"/>
</linearGradient>
<linearGradient id="paint3_linear_845_1144" x1="2181.55" y1="1374.99" x2="-157.433" y2="1062.94" gradientUnits="userSpaceOnUse">
<stop offset="0.736111" stop-color="#77D1D7"/>
<stop offset="1" stop-color="#3316E3"/>
</linearGradient>
<linearGradient id="paint4_linear_845_1144" x1="2190.81" y1="1374.98" x2="-155.453" y2="1065.24" gradientUnits="userSpaceOnUse">
<stop offset="0.736111" stop-color="#77D1D7"/>
<stop offset="1" stop-color="#3316E3"/>
</linearGradient>
<linearGradient id="paint5_linear_845_1144" x1="2201.41" y1="1374.44" x2="-153.357" y2="1067.59" gradientUnits="userSpaceOnUse">
<stop offset="0.736111" stop-color="#77D1D7"/>
<stop offset="1" stop-color="#3316E3"/>
</linearGradient>
<linearGradient id="paint6_linear_845_1144" x1="2211.6" y1="1378.47" x2="-151.585" y2="1073.8" gradientUnits="userSpaceOnUse">
<stop offset="0.736111" stop-color="#77D1D7"/>
<stop offset="1" stop-color="#3316E3"/>
</linearGradient>
<linearGradient id="paint7_linear_845_1144" x1="2220.52" y1="1389.7" x2="-150.348" y2="1084.7" gradientUnits="userSpaceOnUse">
<stop offset="0.736111" stop-color="#77D1D7"/>
<stop offset="1" stop-color="#3316E3"/>
</linearGradient>
<linearGradient id="paint8_linear_845_1144" x1="2229.23" y1="1401.8" x2="-150.782" y2="1096.65" gradientUnits="userSpaceOnUse">
<stop offset="0.736111" stop-color="#77D1D7"/>
<stop offset="1" stop-color="#3316E3"/>
</linearGradient>
<linearGradient id="paint9_linear_845_1144" x1="2237.98" y1="1413.49" x2="-150.752" y2="1108.27" gradientUnits="userSpaceOnUse">
<stop offset="0.736111" stop-color="#77D1D7"/>
<stop offset="1" stop-color="#3316E3"/>
</linearGradient>
<linearGradient id="paint10_linear_845_1144" x1="2246.61" y1="1425.38" x2="-150.892" y2="1120.14" gradientUnits="userSpaceOnUse">
<stop offset="0.736111" stop-color="#77D1D7"/>
<stop offset="1" stop-color="#3316E3"/>
</linearGradient>
<linearGradient id="paint11_linear_845_1144" x1="2255.3" y1="1437.23" x2="-150.951" y2="1131.95" gradientUnits="userSpaceOnUse">
<stop offset="0.736111" stop-color="#77D1D7"/>
<stop offset="1" stop-color="#3316E3"/>
</linearGradient>
<linearGradient id="paint12_linear_845_1144" x1="2263.23" y1="1448.81" x2="-151.15" y2="1143.66" gradientUnits="userSpaceOnUse">
<stop offset="0.736111" stop-color="#77D1D7"/>
<stop offset="1" stop-color="#3316E3"/>
</linearGradient>
<linearGradient id="paint13_linear_845_1144" x1="2271.94" y1="1460.47" x2="-151.181" y2="1155.26" gradientUnits="userSpaceOnUse">
<stop offset="0.736111" stop-color="#77D1D7"/>
<stop offset="1" stop-color="#3316E3"/>
</linearGradient>
<linearGradient id="paint14_linear_845_1144" x1="2280.68" y1="1472.45" x2="-151.335" y2="1167.36" gradientUnits="userSpaceOnUse">
<stop offset="0.736111" stop-color="#77D1D7"/>
<stop offset="1" stop-color="#3316E3"/>
</linearGradient>
<linearGradient id="paint15_linear_845_1144" x1="2289.42" y1="1484.69" x2="-151.451" y2="1179.73" gradientUnits="userSpaceOnUse">
<stop offset="0.736111" stop-color="#77D1D7"/>
<stop offset="1" stop-color="#3316E3"/>
</linearGradient>
<linearGradient id="paint16_linear_845_1144" x1="2298.04" y1="1496.47" x2="-151.53" y2="1191.62" gradientUnits="userSpaceOnUse">
<stop offset="0.736111" stop-color="#77D1D7"/>
<stop offset="1" stop-color="#3316E3"/>
</linearGradient>
<linearGradient id="paint17_linear_845_1144" x1="2306.7" y1="1508.52" x2="-151.615" y2="1203.84" gradientUnits="userSpaceOnUse">
<stop offset="0.736111" stop-color="#77D1D7"/>
<stop offset="1" stop-color="#3316E3"/>
</linearGradient>
<linearGradient id="paint18_linear_845_1144" x1="2315.76" y1="1518.09" x2="-151.875" y2="1211" gradientUnits="userSpaceOnUse">
<stop offset="0.736111" stop-color="#77D1D7"/>
<stop offset="1" stop-color="#3316E3"/>
</linearGradient>
<linearGradient id="paint19_linear_845_1144" x1="2324.91" y1="1526.57" x2="-151.97" y2="1216.16" gradientUnits="userSpaceOnUse">
<stop offset="0.736111" stop-color="#77D1D7"/>
<stop offset="1" stop-color="#3316E3"/>
</linearGradient>
<linearGradient id="paint20_linear_845_1144" x1="2334.08" y1="1535.02" x2="-152.282" y2="1221.29" gradientUnits="userSpaceOnUse">
<stop offset="0.736111" stop-color="#77D1D7"/>
<stop offset="1" stop-color="#3316E3"/>
</linearGradient>
<linearGradient id="paint21_linear_845_1144" x1="2342.91" y1="1543.18" x2="-152.475" y2="1226.18" gradientUnits="userSpaceOnUse">
<stop offset="0.736111" stop-color="#77D1D7"/>
<stop offset="1" stop-color="#3316E3"/>
</linearGradient>
<linearGradient id="paint22_linear_845_1144" x1="2352.25" y1="1551.3" x2="-152.529" y2="1230.97" gradientUnits="userSpaceOnUse">
<stop offset="0.736111" stop-color="#77D1D7"/>
<stop offset="1" stop-color="#3316E3"/>
</linearGradient>
<linearGradient id="paint23_linear_845_1144" x1="2361.62" y1="1559.16" x2="-152.433" y2="1235.46" gradientUnits="userSpaceOnUse">
<stop offset="0.736111" stop-color="#77D1D7"/>
<stop offset="1" stop-color="#3316E3"/>
</linearGradient>
<linearGradient id="paint24_linear_845_1144" x1="2370.77" y1="1566.81" x2="-152.902" y2="1239.46" gradientUnits="userSpaceOnUse">
<stop offset="0.736111" stop-color="#77D1D7"/>
<stop offset="1" stop-color="#3316E3"/>
</linearGradient>
<linearGradient id="paint25_linear_845_1144" x1="2380.14" y1="1574.04" x2="-152.73" y2="1242.99" gradientUnits="userSpaceOnUse">
<stop offset="0.736111" stop-color="#77D1D7"/>
<stop offset="1" stop-color="#3316E3"/>
</linearGradient>
<linearGradient id="paint26_linear_845_1144" x1="2389.65" y1="1580.29" x2="-152.846" y2="1245.17" gradientUnits="userSpaceOnUse">
<stop offset="0.736111" stop-color="#77D1D7"/>
<stop offset="1" stop-color="#3316E3"/>
</linearGradient>
</defs>
</svg>
