<svg width="206" height="79" viewBox="0 0 206 79" fill="none" xmlns="http://www.w3.org/2000/svg">
<rect width="206" height="79" rx="39.5" fill="#2E2E2E"/>
<path d="M40.3787 49V31.375H51.3287V32.7H41.8787V39.4H50.7787V40.725H41.8787V47.675H51.3287V49H40.3787ZM57.5027 49V31.375H58.7527L70.5527 47.175H70.0027V31.375H71.4277V49H70.2027L58.4027 33.2H58.9277V49H57.5027ZM84.0568 49L76.4318 31.375H78.1068L85.1818 47.9H84.5068L91.6318 31.375H93.2568L85.5818 49H84.0568ZM97.1543 40.175C97.1543 38.3083 97.4626 36.7083 98.0793 35.375C98.7126 34.025 99.621 32.9917 100.804 32.275C101.988 31.5417 103.413 31.175 105.079 31.175C106.713 31.175 108.121 31.5417 109.304 32.275C110.504 32.9917 111.421 34.025 112.054 35.375C112.704 36.7083 113.029 38.3 113.029 40.15C113.029 42.0167 112.704 43.625 112.054 44.975C111.404 46.325 110.479 47.3667 109.279 48.1C108.096 48.8333 106.696 49.2 105.079 49.2C103.429 49.2 102.013 48.8333 100.829 48.1C99.646 47.3667 98.7376 46.325 98.1043 44.975C97.471 43.625 97.1543 42.025 97.1543 40.175ZM98.8043 40.175C98.8043 42.575 99.3376 44.45 100.404 45.8C101.471 47.1333 103.029 47.8 105.079 47.8C107.063 47.8 108.613 47.1333 109.729 45.8C110.846 44.45 111.404 42.575 111.404 40.175C111.404 37.7583 110.846 35.8917 109.729 34.575C108.629 33.2417 107.079 32.575 105.079 32.575C103.029 32.575 101.471 33.2417 100.404 34.575C99.3376 35.8917 98.8043 37.7583 98.8043 40.175ZM122.697 49V40.8L123.072 41.975L115.897 31.375H117.697L123.747 40.5H123.297L129.347 31.375H131.072L123.897 41.975L124.247 40.8V49H122.697ZM135.935 49V31.375H146.885V32.7H137.435V39.4H146.335V40.725H137.435V47.675H146.885V49H135.935ZM153.059 49V31.375H160.009C161.826 31.375 163.234 31.8 164.234 32.65C165.234 33.5 165.734 34.7 165.734 36.25C165.734 37.25 165.509 38.1083 165.059 38.825C164.609 39.525 163.984 40.0667 163.184 40.45C162.384 40.8167 161.459 41 160.409 41L160.884 40.725H161.234C161.918 40.725 162.526 40.8917 163.059 41.225C163.593 41.5417 164.018 42.0917 164.334 42.875L166.784 49H165.084L162.784 43.15C162.468 42.3 162.009 41.7583 161.409 41.525C160.809 41.275 160.043 41.15 159.109 41.15H154.609V49H153.059ZM154.609 39.85H159.809C161.226 39.85 162.301 39.5417 163.034 38.925C163.784 38.3083 164.159 37.425 164.159 36.275C164.159 35.1083 163.784 34.225 163.034 33.625C162.301 33.0083 161.226 32.7 159.809 32.7H154.609V39.85Z" fill="white"/>
</svg>
